<?xml version="1.0" standalone="no"?>
<!DOCTYPE svg PUBLIC "-//W3C//DTD SVG 20010904//EN"
 "http://www.w3.org/TR/2001/REC-SVG-20010904/DTD/svg10.dtd">
<svg version="1.0" xmlns="http://www.w3.org/2000/svg"
 width="256.000000pt" height="256.000000pt" viewBox="0 0 256.000000 256.000000"
 preserveAspectRatio="xMidYMid meet">
<metadata>
Created by potrace 1.14, written by Peter Selinger 2001-2017
</metadata>
<g transform="translate(0.000000,256.000000) scale(0.100000,-0.100000)"
fill="#000000" stroke="none">
<path d="M430 2178 c0 -5 12 -8 28 -8 35 0 93 -16 116 -33 17 -12 16 -20 -4
-167 -76 -563 -173 -1222 -187 -1277 -30 -122 -115 -194 -245 -208 -85 -8
-118 -15 -118 -24 0 -4 26 -4 58 0 129 17 388 20 510 7 67 -8 122 -10 122 -6
0 7 -21 12 -115 24 -105 13 -159 63 -176 161 -9 52 1 133 85 733 52 371 96
686 98 700 4 24 5 24 21 -10 19 -39 457 -1594 457 -1622 0 -10 3 -18 8 -18 4
0 200 375 437 833 236 457 431 825 433 816 2 -14 -190 -1407 -204 -1474 -10
-45 -41 -102 -61 -110 -10 -4 -45 -13 -78 -20 -58 -13 -55 -13 55 -7 149 8
385 8 530 0 105 -6 111 -3 27 16 -49 11 -67 39 -67 104 0 102 196 1456 216
1498 26 51 59 73 122 81 28 3 52 10 52 16 0 5 -12 7 -28 3 -15 -3 -145 -9
-288 -12 l-262 -7 -302 -586 c-166 -322 -306 -590 -309 -594 -9 -9 -268 886
-277 956 -14 104 42 208 121 223 19 3 35 9 35 13 0 3 -182 6 -405 6 -223 0
-405 -3 -405 -7z"/>
</g>
</svg>
